<svg version="1.1" id="Layer_1" xmlns="http://www.w3.org/2000/svg" xmlns:xlink="http://www.w3.org/1999/xlink" x="0px" y="0px"
	 width="1024" height="576" viewBox="0 0 1024 576" xml:space="preserve">
<path fill="#677389" opacity="1.000000" stroke="none"
	d="
M938.247925,425.775391
	C935.216431,420.365143 932.763672,415.057587 929.265503,410.352722
	C927.442200,407.900452 925.691895,407.334473 923.139954,409.632935
	C901.562744,429.066864 874.963196,433.534180 847.396057,434.178314
	C814.088135,434.956604 780.760437,434.852417 747.447021,435.450287
	C736.624146,435.644531 725.832275,436.207245 715.004089,435.387848
	C708.809631,434.919098 704.221191,432.525024 701.458801,426.821533
	C698.548767,420.813110 699.890198,415.452637 703.866577,410.563019
	C708.314880,405.093048 714.011963,400.963196 719.411865,396.519958
	C721.173218,395.070648 723.251587,393.862152 724.148621,391.045013
	C719.230408,388.477203 714.199219,388.693481 709.214722,390.254242
	C698.397522,393.641266 689.120850,399.893158 680.210754,406.649170
	C668.434082,415.578735 656.347656,423.872528 641.230530,425.806396
	C626.334045,427.712036 611.285095,428.961700 596.619873,424.830780
	C584.098694,421.303802 580.128601,413.368347 583.261841,400.665253
	C586.364136,388.087585 595.769592,381.895172 606.956421,377.709839
	C613.198303,375.374603 619.671265,373.704010 626.306335,372.923950
	C629.045654,372.601898 630.625244,371.416901 632.202576,369.101288
	C635.472351,364.300934 639.327271,359.899170 642.939941,355.332245
	C644.247437,353.679382 645.261658,352.042145 643.483948,350.019745
	C631.308350,336.167969 620.454346,320.937653 603.691467,311.877930
	C597.954651,308.777374 591.953552,306.420349 585.511658,305.153564
	C554.974792,299.148560 532.017700,282.400177 516.034363,255.868332
	C513.084961,250.972443 511.465454,245.538406 510.065216,240.047913
	C508.611786,234.349075 510.908173,229.581512 514.061951,225.115158
	C522.086792,213.750717 532.230774,204.341461 542.063049,194.616852
	C564.281067,172.642014 589.696899,155.623795 618.928223,144.478043
	C630.314148,140.136642 641.924561,136.506958 654.346802,136.912018
	C658.827393,137.058121 661.131714,133.628128 663.806030,131.081650
	C670.513916,124.694420 677.859680,119.315887 686.384155,115.667465
	C714.222229,103.753021 739.292542,114.022675 750.960632,142.063034
	C754.361267,150.235214 754.333130,149.825943 763.372375,149.206406
	C813.756348,145.753082 859.530029,157.203964 898.289124,191.273331
	C917.199524,207.895706 930.734070,228.270462 940.520325,251.209961
	C950.571655,274.770752 955.701538,299.403076 955.170288,325.115356
	C954.798828,343.093353 951.622253,360.580383 945.248352,377.362579
	C942.771790,383.883270 943.660278,388.082642 948.713257,393.426605
	C964.497864,410.120239 972.549561,433.222931 962.214478,454.824585
	C954.654968,470.624969 941.770142,480.881378 926.140137,487.873199
	C908.448975,495.787048 889.606323,497.506531 870.492798,497.546539
	C853.509399,497.582062 836.526978,497.475616 819.593628,496.093353
	C803.815125,494.805298 788.024658,493.806427 772.201416,494.400818
	C751.155457,495.191376 730.438232,497.954773 710.729309,506.002228
	C707.037964,507.509460 703.271545,508.826782 699.322021,509.625305
	C694.613281,510.577332 690.664062,509.687836 688.017090,505.458588
	C685.014709,500.661346 685.133850,494.027710 688.244019,490.428406
	C690.899963,487.354736 694.219238,485.057495 697.983276,483.604492
	C716.580383,476.425720 735.830139,472.360199 755.715210,470.578461
	C785.449707,467.914093 814.884766,472.112305 844.450684,473.397827
	C866.440979,474.353882 888.469116,474.723175 909.708740,467.460846
	C919.408691,464.144196 928.311707,459.352661 935.140808,451.369324
	C941.745117,443.648651 943.698914,435.358368 938.247925,425.775391
M759.948853,292.483093
	C770.441467,280.236603 783.620483,272.110962 798.955688,267.494568
	C804.927917,265.696747 811.081848,264.787354 816.648987,269.006439
	C823.368408,274.098816 822.558289,281.778717 814.869080,284.979950
	C810.877747,286.641632 806.740417,287.954071 802.662598,289.406372
	C792.605652,292.988098 783.648926,298.302307 776.601318,306.433441
	C758.319214,327.526398 761.589478,357.648010 778.535767,377.957489
	C785.415710,386.202820 794.119568,391.803009 803.814941,396.229767
	C810.430603,399.250366 817.244080,402.370728 819.641479,410.352386
	C820.170898,412.114777 822.052917,411.941345 823.518005,411.931763
	C842.839966,411.805634 862.240417,411.906769 881.029236,406.652161
	C897.644287,402.005463 911.245667,392.947662 919.871460,377.417175
	C929.551270,359.989014 932.471069,340.860626 932.429993,321.473328
	C932.367004,291.769165 924.969177,263.799408 908.810425,238.505295
	C889.665894,208.537445 863.944031,187.438202 828.824829,178.801651
	C805.563354,173.081192 782.018799,172.934464 758.332092,174.459824
	C754.094360,174.732712 751.704529,176.579651 750.595825,180.745132
	C749.746582,183.936081 748.336975,187.012604 746.898010,190.006104
	C739.126282,206.174072 726.494812,216.935135 709.623169,222.646149
	C702.699463,224.989807 698.344971,221.870041 697.208618,214.636703
	C696.569885,210.571091 697.965454,207.412949 701.156982,205.029434
	C705.693420,201.641479 710.259338,198.288620 714.899292,195.044617
	C726.208496,187.137909 730.745850,175.727676 731.731018,162.533386
	C732.077148,157.897797 732.339478,153.202469 730.201660,148.790268
	C722.825745,133.567337 706.351746,128.723282 691.859009,137.602631
	C682.226807,143.504089 675.121216,151.680466 670.143127,161.810272
	C667.198975,167.801132 662.405151,169.198364 657.021362,166.322372
	C654.262634,164.848663 654.417236,161.871277 652.862183,159.677185
	C652.002136,159.719116 651.180298,159.694656 650.377808,159.807999
	C638.714050,161.455276 627.835449,165.622360 617.157776,170.348389
	C593.354431,180.883942 572.948303,196.199966 555.156494,215.054962
	C550.737732,219.737839 551.641602,222.426086 557.619080,224.484665
	C563.741516,226.593155 568.249695,232.089859 567.676208,236.747177
	C566.985229,242.359161 561.990906,246.254883 554.618164,246.640320
	C552.782593,246.736298 551.854736,247.342606 551.413574,249.033051
	C549.335388,256.994995 552.181091,264.796906 559.031067,269.627167
	C569.239502,276.825653 580.585815,281.780090 592.645325,284.500519
	C615.391479,289.631653 632.518066,302.729370 647.209656,320.139160
	C655.663452,330.157043 662.916382,341.331329 673.749573,349.226807
	C676.669373,351.354828 676.119629,353.865845 674.023010,356.521698
	C665.756653,366.992828 655.840820,375.969055 647.279236,386.171448
	C646.349304,387.279663 644.881897,387.939270 643.656860,388.796967
	C638.276062,392.563965 632.251282,394.909302 626.068420,396.983826
	C624.079712,397.651093 621.554504,398.822540 621.868896,401.294403
	C622.218384,404.042877 625.035278,403.734283 627.148132,403.871948
	C633.056030,404.256866 638.718445,403.267883 644.271667,401.141174
	C654.044678,397.398376 662.397461,391.319275 670.867126,385.416565
	C679.757324,379.220764 688.534790,372.720154 698.948730,369.329315
	C709.821106,365.789246 720.714844,368.206635 731.523560,370.332397
	C736.332581,371.278229 740.984070,373.092285 746.480469,373.358307
	C736.476501,343.953094 740.395752,317.210327 759.948853,292.483093
M755.500183,413.971771
	C763.832336,413.383575 772.310730,414.768677 781.623413,412.354828
	C776.279053,408.819122 770.779846,407.974426 766.455750,405.112091
	C756.812317,398.728516 748.122253,399.952484 739.670410,407.120087
	C738.404297,408.193817 736.966553,409.063110 735.672668,410.106873
	C734.795776,410.814240 733.714783,411.511627 734.504028,413.505463
	C740.975342,414.528442 747.760254,413.796417 755.500183,413.971771
z"/>
<path fill="#677389" opacity="1.000000" stroke="none"
	d="
M213.822449,494.984192
	C184.721848,495.752228 156.197693,499.392792 127.512611,498.178467
	C106.366768,497.283325 85.675995,494.179199 67.259895,482.697754
	C49.756882,471.785645 39.040661,456.292206 38.164471,435.355530
	C37.507679,419.661438 42.931946,405.509033 54.643040,395.014191
	C61.735516,388.658295 62.844604,383.219543 59.305508,374.566559
	C51.976891,356.648376 49.343678,337.643372 50.037224,318.309906
	C51.485260,277.943909 64.585670,241.705170 89.608246,209.964417
	C115.458580,177.173706 149.780334,158.727768 190.426682,151.124130
	C208.123230,147.813644 225.955261,148.782883 243.754196,149.106567
	C249.412323,149.209473 252.398239,148.070724 254.650406,142.045761
	C262.711304,120.481331 281.160675,108.646812 302.171082,110.878937
	C315.402222,112.284599 326.695099,118.413712 336.103851,127.541916
	C342.435547,133.684814 349.001038,136.631454 358.191254,137.526367
	C377.918152,139.447311 396.026764,147.586945 413.589233,156.636246
	C433.095551,166.687149 449.285919,181.015442 464.677399,196.324356
	C472.933899,204.536575 481.572449,212.351852 489.086700,221.343246
	C496.322845,230.001801 496.394012,239.026489 492.659210,248.897644
	C487.478394,262.590973 477.942963,272.976562 467.199890,282.352417
	C454.984283,293.013367 441.270660,300.869507 425.128662,304.208130
	C401.709229,309.051971 384.032745,322.436035 370.715912,341.931305
	C368.665039,344.933746 366.369995,347.244812 362.732544,348.229614
	C358.998077,349.240631 358.370270,351.555420 360.849426,354.541748
	C365.211243,359.795868 369.701080,364.945587 373.982330,370.263855
	C375.961639,372.722565 378.559601,372.562103 381.213928,372.749054
	C394.151703,373.660278 405.561707,378.109497 414.540070,387.739990
	C419.316895,392.863831 422.424194,398.776215 422.354218,406.101868
	C422.244843,417.547729 415.156128,425.402252 403.779083,426.165527
	C396.473297,426.655640 389.119049,426.591431 381.843781,427.335632
	C360.787323,429.489471 342.872467,422.552216 327.007874,409.165314
	C322.171234,405.084076 316.948151,401.434814 312.329254,397.129395
	C308.345123,393.415649 304.079590,392.627136 299.021820,393.713196
	C295.157532,394.542969 291.230988,395.083099 286.960022,395.815948
	C287.712524,398.831879 290.008942,400.079559 291.827332,401.542542
	C295.630280,404.602295 299.000549,408.047974 301.724060,412.063019
	C308.152588,421.540222 303.140289,433.681702 291.801117,435.346863
	C280.893097,436.948700 269.820770,436.269867 258.863739,435.837189
	C241.704361,435.159607 224.550598,435.370209 207.395569,435.180511
	C185.750702,434.941193 164.087570,434.963196 142.508347,433.156555
	C120.558563,431.318909 99.819939,425.801361 82.863968,410.610138
	C80.034317,408.075012 77.940865,408.683746 75.732727,411.275574
	C69.924210,418.093414 66.149406,426.057465 62.756027,434.226227
	C61.554996,437.117371 62.939041,439.812653 64.004936,442.401947
	C68.456909,453.216705 76.864136,460.004211 87.212555,464.656311
	C98.439644,469.703369 110.360649,471.795837 122.553337,472.817657
	C143.230316,474.550598 163.792374,472.764771 184.390213,471.306488
	C216.339279,469.044678 248.278183,467.774323 279.768066,475.714447
	C290.431732,478.403229 301.113373,481.092987 310.751343,486.656097
	C319.229919,491.549927 321.120605,497.989349 316.399628,505.225861
	C313.848206,509.136780 310.208618,510.818848 305.697113,509.972107
	C302.445465,509.361816 299.201965,508.421539 296.128784,507.193176
	C275.448029,498.927124 253.916840,495.240082 231.731674,494.944214
	C225.921066,494.866730 220.109222,494.200958 213.822449,494.984192
M280.595764,185.885956
	C281.179443,186.696075 281.739349,187.524628 282.350494,188.313461
	C288.002625,195.608582 295.997406,199.188843 304.275177,202.516510
	C310.608032,205.062286 313.121094,210.149368 311.455353,215.524261
	C309.761627,220.989380 304.328125,224.031738 297.876434,222.922501
	C294.591217,222.357681 291.461029,221.202896 288.416321,219.791504
	C270.825195,211.637009 260.111115,197.541534 253.902237,179.658890
	C252.682297,176.145218 250.658844,174.494629 247.047668,174.330048
	C229.075287,173.510941 211.117142,172.614807 193.197052,175.320786
	C163.276855,179.838776 136.903458,191.730179 115.912880,213.795975
	C91.741653,239.205368 77.267761,269.607147 73.579964,304.516907
	C71.530205,323.920563 72.312019,343.420166 78.432373,362.336487
	C84.657593,381.576843 95.838631,396.440002 115.285851,403.682892
	C138.259827,412.239349 162.387451,411.498444 186.358414,411.715698
	C187.761444,411.728424 189.115814,411.336517 189.581161,409.845703
	C191.971130,402.188812 198.610321,399.050720 204.834183,395.558533
	C214.531387,390.117371 223.009094,383.363647 229.939072,374.551727
	C244.071014,356.582031 246.129608,331.639679 233.744049,313.385071
	C224.197220,299.314423 210.519943,290.745819 193.765686,287.229187
	C186.970703,285.802917 182.963470,279.707672 184.217148,273.084015
	C185.209930,267.838715 190.279587,265.147156 197.295029,266.122101
	C204.463333,267.118286 211.197372,269.559540 217.762955,272.453644
	C249.442657,286.418060 268.568970,321.441559 263.601868,355.719666
	C262.512909,363.234436 260.606567,370.527618 258.395294,378.251099
	C264.381714,377.680603 269.421021,375.997253 274.571289,374.856140
	C281.617645,373.294952 288.574127,372.435089 291.626678,363.820618
	C293.414856,358.774384 298.979340,357.660980 305.032898,359.083893
	C311.547302,360.615143 314.345062,363.348724 315.297394,369.266937
	C315.659210,371.515259 316.499969,373.517914 318.393768,374.770264
	C330.473358,382.758179 341.747040,391.993195 354.693451,398.626282
	C358.172852,400.408997 361.881958,402.288605 366.145996,401.043182
	C367.963654,400.512299 370.627594,401.286499 371.153931,398.744293
	C371.610229,396.540558 369.681183,395.251587 368.001526,394.076508
	C356.578796,386.085449 347.420227,375.771454 338.431427,365.273956
	C335.506256,361.857819 335.119293,358.483368 336.979065,354.252197
	C343.784271,338.769653 354.225983,325.865021 365.231750,313.316833
	C374.490326,302.760681 385.151550,294.109467 398.558868,289.404999
	C407.511719,286.263519 416.611938,283.544586 425.613251,280.537994
	C437.503815,276.566315 447.793121,269.913391 456.934540,261.428802
	C458.610535,259.873199 460.307068,258.382446 459.372131,255.451981
	C456.393066,246.114624 456.864075,244.095596 464.857666,238.056366
	C468.819946,235.062836 468.564056,232.906570 465.363495,229.778656
	C458.332825,222.907532 451.498718,215.835800 444.509460,208.921692
	C424.176636,188.807388 400.717957,173.644577 373.473358,164.659576
	C366.443085,162.341080 359.192200,160.691605 351.955231,158.710846
	C351.153748,166.221222 348.156677,168.479309 341.728790,167.353851
	C338.656860,166.815964 337.397095,164.445175 335.880493,162.313278
	C329.508759,153.356430 323.620117,143.952774 314.106293,137.824951
	C297.857269,127.359032 278.032104,135.352875 274.039612,154.188782
	C271.687775,165.284317 274.370148,175.658737 280.595764,185.885956
M253.497650,414.036346
	C259.141327,413.910980 264.864044,414.622101 271.025238,413.263062
	C270.215332,411.615021 269.997742,410.792419 269.498047,410.213104
	C263.147583,402.850891 255.407089,400.735321 246.162491,403.772339
	C239.013794,406.120758 231.871002,408.482208 225.292694,412.501312
	C234.363327,414.544525 243.475876,413.502686 253.497650,414.036346
z"/>
<path fill="#677389" opacity="1.000000" stroke="none"
	d="
M611.455200,197.193069
	C621.078735,192.868683 628.249390,195.010773 632.406189,203.159393
	C636.251221,210.696701 633.686584,219.286331 626.359619,223.411392
	C617.906799,228.170288 610.208252,226.548492 605.528992,219.023148
	C600.373657,210.732147 602.236328,203.525284 611.455200,197.193069
z"/>
<path fill="#677389" opacity="1.000000" stroke="none"
	d="
M373.224609,218.479706
	C368.535370,207.585464 374.870026,195.643997 386.103577,194.166702
	C391.865082,193.408997 396.433838,196.315002 399.427887,201.175018
	C402.752502,206.571503 403.927277,212.556549 400.364441,218.127869
	C393.492584,228.873566 380.885406,229.032501 373.224609,218.479706
z"/>
</svg>
