<svg xmlns="http://www.w3.org/2000/svg" width="100" height="100" viewBox="0 0 24 24" fill="none" stroke-width="1"
     stroke-linecap="round" stroke-linejoin="round" class="lucide lucide-gift-icon lucide-gift">
    <defs>
        <linearGradient id="giftGradient" x1="0%" y1="0%" x2="100%" y2="100%">
            <stop offset="0%" style="stop-color:rgb(190, 216, 235);stop-opacity:1"/>
            <stop offset="100%" style="stop-color:rgb(148, 204, 247);stop-opacity:1"/>
        </linearGradient>
    </defs>
    <rect x="0" y="0" width="24" height="24" fill="url(#giftGradient)"/>
    <g transform="translate(12, 12) scale(0.7) translate(-12, -12)">
        <rect x="3" y="8" width="18" height="4" stroke="white"/>
        <path d="M12 8v13" stroke="white"/>
        <path d="M19 12v7a2 2 0 0 1-2 2H7a2 2 0 0 1-2-2v-7" stroke="white"/>
        <path d="M7.5 8a2.5 2.5 0 0 1 0-5A4.8 8 0 0 1 12 8a4.8 8 0 0 1 4.5-5 2.5 2.5 0 0 1 0 5" stroke="white"/>
    </g>
</svg>

